<?xml version="1.0" encoding="UTF-8"?><svg id="Layer_1" xmlns="http://www.w3.org/2000/svg" viewBox="0 0 1784.75 468.85"><defs><style>.cls-1{letter-spacing:.34em;}.cls-2{fill:#231f20;}.cls-3{letter-spacing:.3em;}.cls-4{fill:#112019;font-family:CenturyGothic-Bold, 'Century Gothic';font-size:312.87px;}.cls-5{fill:#f15b2b;font-family:WondarQuasonFree-Regular, 'Wondar Quason Free';font-size:137px;}.cls-6{letter-spacing:.35em;}.cls-7{letter-spacing:.28em;}</style></defs><text class="cls-4" transform="translate(0 268.8)"><tspan x="0" y="0">GoldenFern</tspan></text><text class="cls-5" transform="translate(1157.44 381.42)"><tspan class="cls-7" x="0" y="0">R</tspan><tspan class="cls-6" x="120.56" y="0">e</tspan><tspan class="cls-1" x="234.13" y="0">so</tspan><tspan class="cls-6" x="452.23" y="0">r</tspan><tspan class="cls-3" x="544.43" y="0">t</tspan></text><g><g><path class="cls-2" d="M1272.46,455.4v-49.08h2.09v26.83c1.18-2.4,3.02-4.32,5.53-5.76s5.11-2.16,7.82-2.16c4.32,0,7.99,1.52,11.02,4.55,3.03,3.03,4.55,6.66,4.55,10.89s-1.52,7.86-4.55,10.9-6.71,4.55-11.02,4.55c-2.62,0-5.17-.71-7.66-2.13-2.49-1.42-4.38-3.33-5.69-5.73v7.13h-2.09Zm1.96-14.66c0,3.66,1.34,6.84,4.02,9.52,2.68,2.68,5.87,4.02,9.55,4.02s6.84-1.34,9.46-4.02c2.62-2.68,3.93-5.87,3.93-9.55s-1.32-6.88-3.96-9.59c-2.64-2.7-5.79-4.06-9.46-4.06s-6.84,1.36-9.52,4.09c-2.68,2.73-4.02,5.92-4.02,9.59Z"/><path class="cls-2" d="M1287.9,456.49c-2.67,0-5.31-.73-7.84-2.18-2.13-1.21-3.85-2.8-5.14-4.73v6.18h-2.83v-49.81h2.83v25.79c1.2-1.89,2.87-3.46,4.98-4.67,2.55-1.47,5.24-2.21,8-2.21,4.4,0,8.2,1.57,11.28,4.66,3.09,3.09,4.66,6.84,4.66,11.15s-1.57,8.07-4.66,11.16c-3.09,3.09-6.89,4.65-11.28,4.65Zm-13.72-9.66l.69,1.26c1.27,2.33,3.14,4.21,5.55,5.58,2.42,1.38,4.93,2.08,7.47,2.08,4.2,0,7.82-1.49,10.77-4.44s4.44-6.53,4.44-10.64-1.49-7.69-4.44-10.63c-2.95-2.95-6.57-4.44-10.77-4.44-2.63,0-5.2,.71-7.64,2.11-2.43,1.4-4.24,3.28-5.38,5.6l-.7,1.42v-28.05h-1.36v48.34h1.36v-8.21Zm13.81,7.83c-3.77,0-7.07-1.39-9.81-4.13-2.74-2.74-4.13-6.03-4.13-9.78s1.39-7.06,4.13-9.84c2.74-2.79,6.03-4.2,9.78-4.2s7.02,1.4,9.72,4.17c2.7,2.77,4.06,6.08,4.06,9.84s-1.36,7.07-4.03,9.81c-2.68,2.74-5.95,4.13-9.72,4.13Zm-.03-27.22c-3.54,0-6.66,1.34-9.26,3.98-2.6,2.64-3.92,5.78-3.92,9.33s1.32,6.66,3.92,9.26c2.6,2.6,5.73,3.92,9.29,3.92s6.66-1.32,9.19-3.91c2.54-2.6,3.82-5.73,3.82-9.3s-1.3-6.71-3.85-9.33c-2.56-2.62-5.65-3.95-9.19-3.95Z"/></g><g><path class="cls-2" d="M1333.38,425.95h2.09v28.53c0,3.88-1.35,7.18-4.06,9.88-2.7,2.7-6.02,4.06-9.95,4.06-4.71,0-8.44-1.81-11.19-5.43l.13-3.27c1.22,2.09,2.82,3.76,4.81,5.01,1.98,1.24,4.07,1.87,6.25,1.87,3.23,0,6.02-1.17,8.38-3.5,2.36-2.33,3.53-5.14,3.53-8.41v-4.97c-2.14,4.28-5.87,6.41-11.19,6.41-3.62,0-6.72-1.27-9.29-3.83-2.57-2.55-3.86-5.62-3.86-9.19v-17.15h2.09v17.15c0,3.01,1.1,5.63,3.31,7.85,2.2,2.22,4.81,3.34,7.82,3.34s5.62-1.11,7.82-3.34c2.2-2.23,3.3-4.84,3.3-7.85v-17.15Z"/><path class="cls-2" d="M1321.47,468.79c-4.81,0-8.67-1.88-11.48-5.58l-.08-.1,.19-4.66,.63,1.09c1.18,2.03,2.76,3.67,4.69,4.88,1.92,1.2,3.95,1.81,6.05,1.81,3.11,0,5.84-1.14,8.12-3.4,2.27-2.25,3.42-4.99,3.42-8.15v-3.58c-2.28,3.57-5.91,5.38-10.82,5.38-3.71,0-6.92-1.32-9.55-3.93-2.63-2.61-3.97-5.79-3.97-9.45v-17.51h2.83v17.51c0,2.9,1.08,5.45,3.2,7.59,2.12,2.14,4.66,3.23,7.56,3.23s5.44-1.09,7.56-3.23c2.12-2.14,3.2-4.7,3.2-7.59v-17.51h2.83v28.9c0,3.97-1.4,7.38-4.17,10.14s-6.2,4.17-10.21,4.17Zm-10.82-5.92c2.66,3.44,6.29,5.18,10.82,5.18,3.81,0,7.07-1.33,9.69-3.95s3.95-5.86,3.95-9.62v-28.16h-1.36v16.78c0,3.1-1.15,5.82-3.41,8.11-2.27,2.29-4.98,3.45-8.08,3.45s-5.82-1.16-8.08-3.45c-2.26-2.29-3.41-5.01-3.41-8.11v-16.78h-1.36v16.78c0,3.46,1.26,6.47,3.75,8.93,2.49,2.47,5.53,3.72,9.03,3.72,5.22,0,8.77-2.03,10.86-6.21l.7-1.39v6.53c0,3.36-1.23,6.27-3.64,8.67-2.42,2.39-5.32,3.61-8.63,3.61-2.24,0-4.41-.65-6.44-1.92-1.7-1.06-3.14-2.45-4.29-4.13l-.08,1.96Z"/></g><g><path class="cls-2" d="M1380.3,456.18h-.59c-4.14,0-7.75-1.56-10.83-4.68-3.08-3.12-4.61-6.75-4.61-10.89s1.53-7.73,4.58-10.77c3.05-3.03,6.83-4.55,11.32-4.55s8.35,1.79,11.58,5.37l-20.55,20.29c2.84,2.27,5.56,3.4,8.18,3.4s4.96-.6,7.04-1.8c2.07-1.2,3.78-2.8,5.14-4.81v3.34c-3.1,3.4-6.85,5.1-11.26,5.1Zm-.69-29.05c-3.47,0-6.54,1.34-9.23,4.02-2.68,2.68-4.02,5.77-4.02,9.26s1.15,6.54,3.47,9.16l19.04-18.91c-2.7-2.36-5.79-3.53-9.26-3.53Z"/><path class="cls-2" d="M1380.3,456.55h-.59c-4.23,0-7.96-1.61-11.09-4.79-3.13-3.18-4.72-6.93-4.72-11.15s1.58-7.94,4.69-11.03c3.11-3.09,7.01-4.65,11.58-4.65s8.57,1.85,11.85,5.49l.24,.26-20.5,20.24c2.64,2.04,5.2,3.07,7.62,3.07,2.54,0,4.84-.59,6.85-1.75,2.01-1.16,3.7-2.74,5.02-4.69l.67-1v4.68l-.1,.1c-3.16,3.47-7.04,5.22-11.53,5.22Zm-.13-30.89c-4.37,0-8.09,1.49-11.06,4.44-2.97,2.95-4.47,6.48-4.47,10.5s1.52,7.6,4.51,10.64c2.99,3.03,6.55,4.57,10.57,4.57h.59c4.23,0,7.9-1.64,10.89-4.88v-2.06c-1.27,1.62-2.81,2.96-4.59,4-2.12,1.23-4.55,1.85-7.22,1.85s-5.52-1.17-8.41-3.48l-.32-.26,20.59-20.33c-3.09-3.31-6.82-4.98-11.07-4.98Zm-10.36,24.44l-.26-.29c-2.36-2.67-3.56-5.84-3.56-9.41s1.39-6.78,4.13-9.52c2.74-2.74,5.93-4.13,9.49-4.13s6.74,1.22,9.5,3.62l.3,.26-19.6,19.46Zm9.8-22.61c-3.35,0-6.37,1.32-8.97,3.92-2.6,2.6-3.92,5.63-3.92,9s1.05,6.15,3.12,8.62l18.48-18.35c-2.55-2.11-5.48-3.19-8.72-3.19Z"/></g><g><path class="cls-2" d="M1412.23,456.25h-.59c-4.19,0-7.79-1.55-10.8-4.64-3.01-3.1-4.52-6.73-4.52-10.9s1.53-7.76,4.58-10.8c3.05-3.03,6.81-4.55,11.25-4.55s8.24,1.68,11.39,5.04v3.34c-1.35-2.01-3.07-3.6-5.14-4.78-2.07-1.18-4.24-1.77-6.51-1.77-3.62,0-6.77,1.34-9.45,4.02-2.68,2.68-4.02,5.88-4.02,9.59s1.34,6.9,4.02,9.59c2.68,2.68,5.83,4.02,9.45,4.02,2.27,0,4.44-.59,6.51-1.77,2.07-1.18,3.78-2.79,5.14-4.84v3.4c-3.05,3.36-6.83,5.04-11.32,5.04Z"/><path class="cls-2" d="M1412.23,456.62h-.59c-4.27,0-7.99-1.6-11.06-4.76-3.07-3.15-4.62-6.91-4.62-11.15s1.58-7.97,4.69-11.06c3.11-3.09,6.98-4.65,11.51-4.65s8.45,1.73,11.65,5.16l.1,.11v4.68l-.67-1c-1.32-1.95-3-3.52-5.01-4.66-2.01-1.14-4.14-1.72-6.33-1.72-3.5,0-6.6,1.32-9.19,3.92s-3.92,5.74-3.92,9.33,1.32,6.73,3.92,9.33c2.6,2.6,5.69,3.92,9.19,3.92,2.19,0,4.32-.58,6.33-1.72,2.01-1.15,3.7-2.74,5.01-4.72l.67-1.02v4.77l-.1,.1c-3.11,3.42-7.01,5.16-11.59,5.16Zm-.06-30.89c-4.33,0-8.03,1.49-11,4.44-2.97,2.94-4.47,6.49-4.47,10.54s1.48,7.63,4.41,10.64c2.92,3.01,6.47,4.53,10.53,4.53h.59c4.32,0,8-1.62,10.95-4.81v-2.11c-1.26,1.65-2.8,2.99-4.59,4.01-2.12,1.2-4.37,1.81-6.69,1.81-3.71,0-6.97-1.39-9.71-4.13-2.74-2.74-4.13-6.05-4.13-9.85s1.39-7.1,4.13-9.85c2.74-2.74,6.01-4.13,9.71-4.13,2.32,0,4.57,.61,6.69,1.81,1.78,1.01,3.32,2.34,4.59,3.97v-2.06c-3.04-3.2-6.74-4.82-11.02-4.82Z"/></g><g><path class="cls-2" d="M1431.99,451.44c-3.01-3.12-4.52-6.75-4.52-10.9s1.53-7.73,4.58-10.76c3.05-3.03,6.73-4.55,11.02-4.55s7.96,1.52,10.99,4.55c3.03,3.03,4.55,6.63,4.55,10.8s-1.48,7.8-4.45,10.89c-2.97,3.1-6.57,4.65-10.8,4.65h-.59c-4.19,0-7.79-1.56-10.8-4.68Zm24.54-10.73c0-3.69-1.32-6.88-3.96-9.59-2.64-2.7-5.79-4.06-9.46-4.06s-6.84,1.36-9.52,4.09c-2.68,2.73-4.02,5.92-4.02,9.59s1.34,6.84,4.02,9.52c2.68,2.68,5.87,4.02,9.55,4.02s6.84-1.34,9.46-4.02c2.62-2.68,3.93-5.87,3.93-9.55Z"/><path class="cls-2" d="M1443.37,456.49h-.59c-4.27,0-7.99-1.61-11.06-4.79-3.07-3.17-4.62-6.93-4.62-11.15s1.58-7.94,4.69-11.02c3.11-3.09,6.91-4.65,11.28-4.65s8.16,1.57,11.25,4.66,4.66,6.81,4.66,11.06-1.53,7.99-4.55,11.15c-3.03,3.16-6.75,4.76-11.06,4.76Zm-.29-30.89c-4.18,0-7.8,1.49-10.77,4.44-2.97,2.94-4.47,6.48-4.47,10.5s1.48,7.61,4.41,10.64c2.92,3.03,6.47,4.57,10.53,4.57h.59c4.11,0,7.65-1.52,10.53-4.53,2.88-3.01,4.35-6.59,4.35-10.64s-1.49-7.59-4.44-10.54c-2.95-2.95-6.56-4.44-10.73-4.44Zm.07,29.05c-3.77,0-7.07-1.39-9.81-4.13-2.74-2.74-4.13-6.03-4.13-9.78s1.39-7.06,4.13-9.84c2.74-2.79,6.03-4.2,9.78-4.2s7.02,1.4,9.72,4.17c2.7,2.76,4.06,6.08,4.06,9.84s-1.36,7.07-4.03,9.81c-2.68,2.74-5.95,4.13-9.72,4.13Zm-.03-27.22c-3.54,0-6.66,1.34-9.26,3.98-2.6,2.64-3.92,5.78-3.92,9.33s1.32,6.66,3.92,9.26c2.6,2.6,5.72,3.92,9.29,3.92s6.66-1.32,9.19-3.91c2.54-2.6,3.82-5.73,3.82-9.3s-1.3-6.71-3.85-9.33c-2.56-2.62-5.65-3.95-9.19-3.95Z"/></g><g><path class="cls-2" d="M1489.83,455.4h-2.09v-49.01h2.09v25.26c2.18-4.28,5.96-6.41,11.32-6.41,3.66,0,6.75,1.27,9.26,3.8,2.51,2.53,3.76,5.61,3.76,9.23v17.14h-2.09v-17.14c0-3.05-1.07-5.68-3.21-7.88-2.14-2.2-4.71-3.31-7.72-3.31s-5.65,1.11-7.92,3.34c-2.27,2.22-3.4,4.84-3.4,7.85v17.14Z"/><path class="cls-2" d="M1514.54,455.77h-2.83v-17.51c0-2.94-1.04-5.51-3.1-7.63-2.06-2.12-4.57-3.19-7.46-3.19s-5.47,1.09-7.66,3.23c-2.18,2.14-3.29,4.69-3.29,7.59v17.51h-2.83v-49.75h2.83v24.25c2.31-3.59,5.99-5.4,10.95-5.4,3.75,0,6.95,1.31,9.52,3.91,2.57,2.59,3.87,5.78,3.87,9.48v17.51Zm-2.09-.74h1.36v-16.78c0-3.5-1.23-6.52-3.66-8.97-2.43-2.45-5.45-3.69-9-3.69-5.19,0-8.89,2.09-10.99,6.21l-.69,1.36v-26.42h-1.36v48.28h1.36v-16.78c0-3.1,1.18-5.83,3.51-8.11,2.33-2.28,5.08-3.44,8.18-3.44s5.78,1.15,7.99,3.42c2.2,2.27,3.31,5,3.31,8.14v16.78Z"/></g><g><path class="cls-2" d="M1524.25,451.44c-3.01-3.12-4.52-6.75-4.52-10.9s1.53-7.73,4.58-10.76c3.05-3.03,6.73-4.55,11.02-4.55s7.96,1.52,10.99,4.55,4.55,6.63,4.55,10.8-1.48,7.8-4.45,10.89c-2.97,3.1-6.57,4.65-10.8,4.65h-.59c-4.19,0-7.79-1.56-10.8-4.68Zm24.54-10.73c0-3.69-1.32-6.88-3.96-9.59-2.64-2.7-5.79-4.06-9.46-4.06s-6.84,1.36-9.52,4.09c-2.68,2.73-4.02,5.92-4.02,9.59s1.34,6.84,4.02,9.52c2.68,2.68,5.87,4.02,9.55,4.02s6.84-1.34,9.46-4.02c2.62-2.68,3.93-5.87,3.93-9.55Z"/><path class="cls-2" d="M1535.64,456.49h-.59c-4.27,0-7.99-1.61-11.06-4.79-3.07-3.17-4.62-6.93-4.62-11.15s1.58-7.94,4.69-11.02c3.11-3.09,6.91-4.65,11.28-4.65s8.16,1.57,11.25,4.66c3.09,3.09,4.66,6.81,4.66,11.06s-1.53,7.99-4.55,11.15c-3.03,3.16-6.75,4.76-11.06,4.76Zm-.29-30.89c-4.18,0-7.8,1.49-10.77,4.44-2.97,2.94-4.47,6.48-4.47,10.5s1.48,7.61,4.41,10.64c2.92,3.03,6.47,4.57,10.53,4.57h.59c4.11,0,7.65-1.52,10.53-4.53,2.88-3.01,4.35-6.59,4.35-10.64s-1.49-7.59-4.44-10.54c-2.95-2.95-6.56-4.44-10.73-4.44Zm.07,29.05c-3.77,0-7.07-1.39-9.81-4.13-2.74-2.74-4.13-6.03-4.13-9.78s1.39-7.06,4.13-9.84c2.74-2.79,6.03-4.2,9.78-4.2s7.02,1.4,9.72,4.17c2.7,2.76,4.06,6.08,4.06,9.84s-1.36,7.07-4.03,9.81c-2.68,2.74-5.95,4.13-9.72,4.13Zm-.03-27.22c-3.54,0-6.66,1.34-9.26,3.98-2.6,2.64-3.92,5.78-3.92,9.33s1.32,6.66,3.92,9.26c2.6,2.6,5.72,3.92,9.29,3.92s6.66-1.32,9.19-3.91c2.54-2.6,3.82-5.73,3.82-9.3s-1.3-6.71-3.85-9.33c-2.56-2.62-5.65-3.95-9.19-3.95Z"/></g><g><path class="cls-2" d="M1563.51,427c-1.13,0-2.14,.37-3.01,1.11-.87,.74-1.31,1.66-1.31,2.75s.49,2.09,1.47,3.01c.98,.92,2.16,1.76,3.53,2.52,1.37,.76,2.76,1.58,4.15,2.45,1.4,.87,2.58,1.99,3.57,3.34,.98,1.35,1.47,2.9,1.47,4.65,0,2.58-.97,4.77-2.91,6.58-1.94,1.81-4.29,2.71-7.03,2.71-1.75,0-3.37-.38-4.88-1.14-1.5-.76-2.61-1.78-3.31-3.04v-3.14c1.66,3.66,4.32,5.5,7.98,5.5,2.27,0,4.18-.7,5.73-2.09,1.55-1.4,2.32-2.95,2.32-4.68s-.49-3.17-1.47-4.35c-.98-1.18-2.17-2.18-3.57-3.01s-2.78-1.65-4.15-2.46c-1.37-.81-2.55-1.79-3.53-2.94-.98-1.16-1.47-2.51-1.47-4.06s.62-2.86,1.87-3.93c1.24-1.07,2.85-1.6,4.81-1.6s3.64,.76,5.04,2.29v2.68c-1.4-2.09-3.16-3.14-5.3-3.14Z"/><path class="cls-2" d="M1563.45,456.49c-1.79,0-3.49-.4-5.04-1.18-1.57-.8-2.73-1.87-3.46-3.19l-.05-.18v-4.84l.7,1.55c1.61,3.55,4.11,5.28,7.65,5.28,2.17,0,4.01-.67,5.48-2,1.46-1.32,2.2-2.8,2.2-4.41s-.47-3.01-1.39-4.12c-.95-1.14-2.12-2.12-3.47-2.93-1.39-.83-2.78-1.65-4.15-2.45-1.4-.82-2.62-1.84-3.63-3.02-1.04-1.22-1.56-2.66-1.56-4.3s.67-3.07,1.99-4.21c1.31-1.12,3-1.69,5.05-1.69s3.85,.81,5.31,2.41l.1,.11v4.04l-.67-1.01c-1.34-2-2.97-2.98-4.99-2.98-1.05,0-1.96,.33-2.77,1.02-.79,.67-1.18,1.48-1.18,2.47s.44,1.89,1.36,2.74c.96,.89,2.12,1.72,3.46,2.47,1.36,.76,2.76,1.58,4.17,2.46,1.43,.89,2.66,2.05,3.67,3.43,1.02,1.41,1.54,3.05,1.54,4.86,0,2.67-1.02,4.97-3.03,6.85-2,1.87-4.45,2.81-7.28,2.81Zm-7.81-4.65c.66,1.16,1.7,2.1,3.1,2.81,1.45,.73,3.03,1.1,4.71,1.1,2.64,0,4.92-.88,6.78-2.62,1.85-1.73,2.8-3.85,2.8-6.31,0-1.66-.47-3.15-1.4-4.43-.95-1.31-2.12-2.4-3.46-3.24-1.4-.87-2.79-1.7-4.14-2.44-1.39-.77-2.61-1.64-3.61-2.57-1.05-.98-1.59-2.09-1.59-3.28s.48-2.22,1.44-3.03c.94-.8,2.03-1.2,3.25-1.2,1.93,0,3.58,.81,4.93,2.41v-1.44c-1.31-1.39-2.84-2.07-4.67-2.07s-3.4,.51-4.57,1.51c-1.17,1.01-1.74,2.2-1.74,3.65s.47,2.74,1.38,3.82c.95,1.12,2.11,2.08,3.44,2.86,1.38,.81,2.76,1.63,4.16,2.46,1.43,.85,2.66,1.89,3.66,3.09,1.03,1.24,1.56,2.78,1.56,4.59s-.82,3.49-2.45,4.95c-1.61,1.45-3.62,2.19-5.97,2.19-3.32,0-5.88-1.47-7.62-4.36v1.54Z"/></g><g><path class="cls-2" d="M1579.61,468.49v-42.53h2.09v7.2c1.18-2.4,3.02-4.32,5.53-5.76s5.11-2.16,7.82-2.16c4.32,0,7.99,1.52,11.02,4.55s4.55,6.66,4.55,10.89-1.52,7.86-4.55,10.9c-3.03,3.03-6.71,4.55-11.02,4.55-2.62,0-5.17-.71-7.66-2.13-2.49-1.42-4.38-3.33-5.69-5.73v20.22h-2.09Zm1.96-27.74c0,3.66,1.34,6.84,4.02,9.52,2.68,2.68,5.87,4.02,9.55,4.02s6.84-1.34,9.46-4.02c2.62-2.68,3.93-5.87,3.93-9.55s-1.32-6.88-3.96-9.59c-2.64-2.7-5.79-4.06-9.46-4.06s-6.84,1.36-9.52,4.09-4.02,5.92-4.02,9.59Z"/><path class="cls-2" d="M1582.07,468.85h-2.83v-43.27h2.83v6.16c1.2-1.89,2.87-3.46,4.98-4.67,2.55-1.47,5.24-2.21,8-2.21,4.4,0,8.2,1.57,11.28,4.66,3.09,3.09,4.66,6.84,4.66,11.15s-1.57,8.07-4.66,11.16-6.89,4.65-11.28,4.65c-2.67,0-5.31-.73-7.84-2.18-2.13-1.21-3.85-2.8-5.14-4.73v19.27Zm-2.09-.74h1.36v-21.29l.69,1.26c1.27,2.33,3.14,4.21,5.55,5.58,2.42,1.38,4.93,2.08,7.47,2.08,4.2,0,7.82-1.49,10.77-4.44,2.95-2.95,4.44-6.53,4.44-10.64s-1.49-7.69-4.44-10.63c-2.95-2.95-6.57-4.44-10.77-4.44-2.63,0-5.2,.71-7.64,2.11-2.43,1.4-4.24,3.28-5.38,5.6l-.7,1.42v-8.41h-1.36v41.8Zm15.17-13.46c-3.77,0-7.07-1.39-9.81-4.13-2.74-2.74-4.13-6.03-4.13-9.78s1.39-7.06,4.13-9.84c2.74-2.79,6.03-4.2,9.78-4.2s7.02,1.4,9.72,4.17c2.7,2.77,4.06,6.08,4.06,9.84s-1.36,7.07-4.03,9.81c-2.68,2.74-5.95,4.13-9.72,4.13Zm-.03-27.22c-3.54,0-6.66,1.34-9.26,3.98-2.6,2.64-3.92,5.78-3.92,9.33s1.32,6.66,3.92,9.26c2.6,2.6,5.73,3.92,9.29,3.92s6.66-1.32,9.19-3.91c2.54-2.6,3.82-5.73,3.82-9.3s-1.3-6.71-3.85-9.33c-2.56-2.62-5.65-3.95-9.19-3.95Z"/></g><g><path class="cls-2" d="M1618.74,418.82c-1.26,0-1.9-.59-1.9-1.77s.63-1.77,1.9-1.77,1.9,.59,1.9,1.77-.63,1.77-1.9,1.77Zm1.05,7.2v29.38h-2.09v-29.38h2.09Z"/><path class="cls-2" d="M1620.15,455.77h-2.83v-30.12h2.83v30.12Zm-2.09-.74h1.36v-28.65h-1.36v28.65Zm.68-35.84c-1.46,0-2.26-.76-2.26-2.13s.8-2.13,2.26-2.13,2.27,.76,2.27,2.13-.8,2.13-2.27,2.13Zm0-3.53c-1.06,0-1.53,.43-1.53,1.4s.47,1.4,1.53,1.4,1.53-.43,1.53-1.4-.47-1.4-1.53-1.4Z"/></g><g><path class="cls-2" d="M1639.02,453.96v1.83c-3.1,0-5.74-1.04-7.92-3.11-2.18-2.07-3.27-4.72-3.27-7.95v-30.62h2.09v11.91h9.03v1.83h-9.03v16.88c0,2.66,.88,4.86,2.65,6.61,1.77,1.75,3.92,2.62,6.44,2.62Z"/><path class="cls-2" d="M1639.39,456.16h-.37c-3.18,0-5.93-1.08-8.17-3.21-2.25-2.13-3.39-4.9-3.39-8.22v-30.99h2.83v11.91h9.03v2.57h-9.03v16.52c0,2.55,.85,4.68,2.54,6.35,1.69,1.67,3.77,2.51,6.19,2.51h.37v2.57Zm-11.19-41.68v30.26c0,3.11,1.06,5.7,3.16,7.68,2.01,1.91,4.47,2.92,7.3,3v-1.1c-2.46-.08-4.59-1-6.34-2.72-1.83-1.81-2.76-4.12-2.76-6.87v-17.25h9.03v-1.1h-9.03v-11.91h-1.36Z"/></g><g><path class="cls-2" d="M1673.64,425.95v29.45h-2.09v-7.33c-1.22,2.49-3.05,4.45-5.5,5.89-2.44,1.44-5.06,2.16-7.85,2.16-4.28,0-7.94-1.51-10.99-4.55-3.06-3.03-4.58-6.66-4.58-10.9s1.53-7.86,4.58-10.89c3.05-3.03,6.72-4.55,10.99-4.55,2.79,0,5.46,.74,8.02,2.23,2.55,1.48,4.33,3.45,5.33,5.89v-7.4h2.09Zm-28.92,14.79c0,3.66,1.34,6.84,4.02,9.52,2.68,2.68,5.87,4.02,9.55,4.02s6.84-1.34,9.46-4.02c2.62-2.68,3.93-5.87,3.93-9.55s-1.32-6.88-3.96-9.59c-2.64-2.7-5.79-4.06-9.46-4.06s-6.84,1.36-9.52,4.09c-2.68,2.73-4.02,5.92-4.02,9.59Z"/><path class="cls-2" d="M1658.2,456.49c-4.36,0-8.14-1.57-11.25-4.65-3.11-3.09-4.69-6.84-4.69-11.16s1.58-8.07,4.69-11.16c3.11-3.09,6.89-4.65,11.25-4.65,2.84,0,5.6,.77,8.2,2.28,2.09,1.22,3.7,2.77,4.78,4.63v-6.19h2.83v30.18h-2.83v-6.28c-1.22,1.96-2.88,3.57-4.94,4.79-2.49,1.47-5.19,2.21-8.04,2.21Zm0-30.89c-4.15,0-7.77,1.49-10.73,4.44-2.97,2.94-4.47,6.52-4.47,10.63s1.5,7.69,4.47,10.63c2.97,2.95,6.58,4.44,10.73,4.44,2.71,0,5.29-.71,7.67-2.11,2.37-1.39,4.17-3.32,5.35-5.73l.7-1.42v8.54h1.36v-28.71h-1.36v8.89l-.71-1.72c-.97-2.35-2.71-4.28-5.18-5.71-2.48-1.44-5.12-2.18-7.83-2.18Zm.1,29.05c-3.77,0-7.07-1.39-9.81-4.13-2.74-2.74-4.13-6.03-4.13-9.78s1.39-7.06,4.13-9.84c2.74-2.79,6.03-4.2,9.78-4.2s7.02,1.4,9.72,4.17c2.7,2.76,4.06,6.08,4.06,9.84s-1.36,7.07-4.03,9.81c-2.68,2.74-5.95,4.13-9.72,4.13Zm-.03-27.22c-3.54,0-6.66,1.34-9.26,3.98-2.6,2.64-3.92,5.78-3.92,9.33s1.32,6.66,3.92,9.26c2.6,2.6,5.72,3.92,9.29,3.92s6.66-1.32,9.19-3.91c2.54-2.6,3.82-5.73,3.82-9.3s-1.3-6.71-3.85-9.33c-2.56-2.62-5.65-3.95-9.19-3.95Z"/></g><g><path class="cls-2" d="M1692.68,454.16v1.83c-3.1,0-5.74-1.04-7.92-3.11-2.18-2.07-3.27-4.72-3.27-7.95v-38.61h2.09v38.61c0,2.66,.88,4.86,2.65,6.61,1.77,1.75,3.92,2.62,6.44,2.62Z"/><path class="cls-2" d="M1693.05,456.35h-.37c-3.18,0-5.93-1.08-8.17-3.21-2.25-2.13-3.39-4.9-3.39-8.22v-38.98h2.83v38.98c0,2.55,.85,4.68,2.54,6.35,1.69,1.67,3.77,2.51,6.19,2.51h.37v2.57Zm-11.19-49.67v38.24c0,3.11,1.06,5.7,3.16,7.68,2.01,1.91,4.47,2.92,7.3,3v-1.1c-2.46-.08-4.59-.99-6.34-2.72-1.83-1.81-2.76-4.12-2.76-6.87v-38.24h-1.36Z"/></g><g><path class="cls-2" d="M1699.81,418.82c-1.26,0-1.9-.59-1.9-1.77s.63-1.77,1.9-1.77,1.9,.59,1.9,1.77-.63,1.77-1.9,1.77Zm1.05,7.2v29.38h-2.09v-29.38h2.09Z"/><path class="cls-2" d="M1701.23,455.77h-2.83v-30.12h2.83v30.12Zm-2.09-.74h1.36v-28.65h-1.36v28.65Zm.68-35.84c-1.46,0-2.26-.76-2.26-2.13s.8-2.13,2.26-2.13,2.27,.76,2.27,2.13-.8,2.13-2.27,2.13Zm0-3.53c-1.06,0-1.53,.43-1.53,1.4s.47,1.4,1.53,1.4,1.53-.43,1.53-1.4-.47-1.4-1.53-1.4Z"/></g><g><path class="cls-2" d="M1720.1,453.96v1.83c-3.1,0-5.74-1.04-7.92-3.11-2.18-2.07-3.27-4.72-3.27-7.95v-30.62h2.09v11.91h9.03v1.83h-9.03v16.88c0,2.66,.88,4.86,2.65,6.61,1.77,1.75,3.92,2.62,6.44,2.62Z"/><path class="cls-2" d="M1720.46,456.16h-.37c-3.18,0-5.93-1.08-8.17-3.21-2.25-2.13-3.39-4.9-3.39-8.22v-30.99h2.83v11.91h9.03v2.57h-9.03v16.52c0,2.55,.85,4.68,2.54,6.35,1.69,1.67,3.77,2.51,6.19,2.51h.37v2.57Zm-11.19-41.68v30.26c0,3.11,1.06,5.7,3.16,7.68,2.01,1.91,4.47,2.92,7.3,3v-1.1c-2.46-.08-4.59-1-6.34-2.72-1.83-1.81-2.76-4.12-2.76-6.87v-17.25h9.03v-1.1h-9.03v-11.91h-1.36Z"/></g><g><path class="cls-2" d="M1749.02,425.95h2.09v28.53c0,3.88-1.35,7.18-4.06,9.88s-6.02,4.06-9.95,4.06c-4.71,0-8.44-1.81-11.19-5.43l.13-3.27c1.22,2.09,2.82,3.76,4.81,5.01,1.98,1.24,4.07,1.87,6.25,1.87,3.23,0,6.02-1.17,8.38-3.5,2.36-2.33,3.53-5.14,3.53-8.41v-4.97c-2.14,4.28-5.87,6.41-11.19,6.41-3.62,0-6.72-1.27-9.29-3.83-2.57-2.55-3.86-5.62-3.86-9.19v-17.15h2.09v17.15c0,3.01,1.1,5.63,3.31,7.85,2.2,2.22,4.81,3.34,7.82,3.34s5.62-1.11,7.82-3.34c2.2-2.23,3.3-4.84,3.3-7.85v-17.15Z"/><path class="cls-2" d="M1737.11,468.79c-4.81,0-8.67-1.88-11.48-5.58l-.08-.1,.19-4.66,.63,1.09c1.18,2.03,2.76,3.67,4.69,4.88,1.92,1.2,3.95,1.81,6.05,1.81,3.11,0,5.84-1.14,8.12-3.4,2.27-2.25,3.42-4.99,3.42-8.15v-3.58c-2.28,3.57-5.91,5.38-10.82,5.38-3.71,0-6.92-1.32-9.55-3.93-2.63-2.61-3.97-5.79-3.97-9.45v-17.51h2.83v17.51c0,2.9,1.08,5.45,3.2,7.59,2.12,2.14,4.66,3.23,7.56,3.23s5.44-1.09,7.56-3.23c2.12-2.14,3.2-4.7,3.2-7.59v-17.51h2.83v28.9c0,3.97-1.4,7.38-4.17,10.14-2.76,2.76-6.2,4.17-10.21,4.17Zm-10.82-5.92c2.66,3.44,6.29,5.18,10.82,5.18,3.81,0,7.07-1.33,9.69-3.95,2.62-2.62,3.95-5.86,3.95-9.62v-28.16h-1.36v16.78c0,3.1-1.15,5.82-3.41,8.11-2.27,2.29-4.98,3.45-8.08,3.45s-5.82-1.16-8.08-3.45c-2.26-2.29-3.41-5.01-3.41-8.11v-16.78h-1.36v16.78c0,3.46,1.26,6.47,3.75,8.93,2.49,2.47,5.53,3.72,9.03,3.72,5.22,0,8.77-2.03,10.86-6.21l.7-1.39v6.53c0,3.36-1.23,6.27-3.64,8.67-2.42,2.39-5.32,3.61-8.63,3.61-2.24,0-4.41-.65-6.44-1.92-1.7-1.06-3.14-2.45-4.29-4.13l-.08,1.96Z"/></g></g></svg>